<svg xmlns="http://www.w3.org/2000/svg" version="1.1" xmlns:xlink="http://www.w3.org/1999/xlink" width="512" height="512" x="0" y="0" viewBox="0 0 512 512" style="enable-background:new 0 0 512 512" xml:space="preserve" class=""><g><ellipse cx="187.06" cy="360.52" rx="40.45" ry="35.15" transform="rotate(-42.99 187.046 360.518)" fill="#1eb9f0" opacity="1" data-original="#000000" class=""></ellipse><ellipse cx="403.28" cy="360.52" rx="40.45" ry="35.15" transform="rotate(-42.99 403.285 360.528)" fill="#1eb9f0" opacity="1" data-original="#000000" class=""></ellipse><rect width="34.15" height="34.15" x="5.41" y="182.71" rx="17.08" fill="#1eb9f0" opacity="1" data-original="#000000" class=""></rect><path d="M346.48 356.94c6.07-30 34.41-53.84 64.87-53.84 29.33 0 50.47 22.11 49.89 50.54 31.72.83 40.55-40.94 40.55-40.94 2.67-11.68 6.66-34.45 10-56.8a37.76 37.76 0 0 0-2.43-20.42A350.18 350.18 0 0 0 479.42 180c-11-16.41-29.45-26.13-50.51-26.48-12.56-.2-24.89-.32-34.2-.32l-.08-.08c-1.2-20.08-15.84-35.46-36.39-37.3-13.37-1.19-66.33-2.06-91.75-2.06-10.1 0-24.59.14-39.25.38v-.06H50.86a17.07 17.07 0 0 0-17.08 17.08v.08a17 17 0 0 0 17 17h35.53a17 17 0 0 1 15.75 16.94v.09A17.08 17.08 0 0 1 85 182.4H66.78a17.07 17.07 0 0 0-17.07 17.07 17.07 17.07 0 0 0 17.07 17.08H85a17.08 17.08 0 0 1 17.08 17.08A17.08 17.08 0 0 1 85 250.71H16.84A17.08 17.08 0 0 0-.24 267.78a17.08 17.08 0 0 0 17.08 17.08H85a17.08 17.08 0 0 1 17.08 17.08A17.08 17.08 0 0 1 85 319H63.92a17.07 17.07 0 0 0-17.07 17.07 17.08 17.08 0 0 0 17.07 17.08l67.26-.05 5.59-13.93c11.45-21.12 34.23-36.08 58.35-36.08 30.47 0 52.11 23.86 49.73 53.88h101.62m-169.4-166.62h-22.92a.1.1 0 0 0-.09.08l-2.11 15a.08.08 0 0 0 .08.1h17.06a5.63 5.63 0 0 1 5.7 6.63 7.89 7.89 0 0 1-7.56 6.63h-17.08a.09.09 0 0 0-.09.07L147 240.65a7.89 7.89 0 0 1-7.56 6.63 5.62 5.62 0 0 1-5.69-6.63l7.94-56.52a8.36 8.36 0 0 1 8-7h29.23a5.62 5.62 0 0 1 5.69 6.63 7.87 7.87 0 0 1-7.54 6.59Zm61.26-8.72a15.55 15.55 0 0 1 4.8 8 27.57 27.57 0 0 1 .4 10.7 29.23 29.23 0 0 1-6.53 15.05 21 21 0 0 1-8.07 5.87.08.08 0 0 0 0 .11l5.68 16.39c1.53 4.4-2.4 9.53-7.29 9.53H227a5.59 5.59 0 0 1-5.44-3.74l-6.87-20a.11.11 0 0 0-.09-.05H200a.1.1 0 0 0-.09.07l-2.4 17.08a7.89 7.89 0 0 1-7.56 6.63 5.62 5.62 0 0 1-5.69-6.63l7.94-56.52a8.36 8.36 0 0 1 8-7h22.6s9.92-.31 15.53 4.51Zm62.2 1.66a7.36 7.36 0 0 1-7.06 6.19h-26.29a.1.1 0 0 0-.09.07L265 204.39a.08.08 0 0 0 .08.1h20.42a5.25 5.25 0 0 1 5.32 6.19 7.36 7.36 0 0 1-7.06 6.19h-20.43a.1.1 0 0 0-.09.07l-2.51 17.86a.1.1 0 0 0 .09.1h26.27a5.25 5.25 0 0 1 5.32 6.19 7.36 7.36 0 0 1-7.06 6.19h-32.6a6 6 0 0 1-6-7l7.89-56.12a8.36 8.36 0 0 1 8-7h32.59a5.25 5.25 0 0 1 5.3 6.13Zm54.61 0a7.36 7.36 0 0 1-7.06 6.19h-26.29a.1.1 0 0 0-.09.07l-2.08 14.84a.08.08 0 0 0 .08.1h20.42a5.25 5.25 0 0 1 5.32 6.19 7.36 7.36 0 0 1-7.06 6.19h-20.44a.1.1 0 0 0-.09.07l-2.51 17.86a.1.1 0 0 0 .09.1h26.27a5.25 5.25 0 0 1 5.32 6.19 7.36 7.36 0 0 1-7.06 6.19h-32.6a6 6 0 0 1-6-7l7.89-56.12a8.36 8.36 0 0 1 8-7h32.59a5.25 5.25 0 0 1 5.3 6.13Zm38-6.41c8.93 0 20.49.12 32.09.31 14.06.23 26.36 6.69 33.74 17.71a322.39 322.39 0 0 1 21.21 37.1c3.3 6.72-2.77 15.47-10.72 15.47h-85.25Z" fill="#1eb9f0" opacity="1" data-original="#000000" class=""></path><path d="M217.45 211.12h-15.8l3-21.64h15.79s11.59-.75 9.69 10.82c.05 0-1.28 10.82-12.68 10.82Z" fill="#1eb9f0" opacity="1" data-original="#000000" class=""></path></g></svg>