<svg xmlns="http://www.w3.org/2000/svg" version="1.1" xmlns:xlink="http://www.w3.org/1999/xlink" width="512" height="512" x="0" y="0" viewBox="0 0 512.003 512.003" style="enable-background:new 0 0 512 512" xml:space="preserve" class=""><g><path d="M497.001 181.003h-15v-15c0-8.291-6.709-15-15-15s-15 6.709-15 15v15h-15c-8.291 0-15 6.709-15 15s6.709 15 15 15h15v15c0 8.291 6.709 15 15 15s15-6.709 15-15v-15h15c8.291 0 15-6.709 15-15s-6.709-15-15-15z" fill="#1eb9f0" opacity="1" data-original="#000000"></path><circle cx="436.001" cy="106.003" r="15" fill="#1eb9f0" opacity="1" data-original="#000000"></circle><circle cx="376.001" cy="196.003" r="15" fill="#1eb9f0" opacity="1" data-original="#000000"></circle><path d="M245.396 365.397c5.859-5.859 15.352-5.859 21.211 0l4.395 4.395V241.003h-30v128.789z" fill="#1eb9f0" opacity="1" data-original="#000000"></path><path d="M406.001 241.003h-105v165a14.983 14.983 0 0 1-9.258 13.857 14.993 14.993 0 0 1-16.347-3.252l-19.395-19.395-19.395 19.395a14.957 14.957 0 0 1-16.348 3.252A14.984 14.984 0 0 1 211 406.003v-165h-8.41L91.001 305.43v191.573c0 8.291 6.709 15 15 15h300c8.291 0 15-6.709 15-15v-241c0-8.291-6.709-15-15-15zM370.755 91.942l-29.998-51.96a15.019 15.019 0 0 0-9.111-6.987 15.149 15.149 0 0 0-11.382 1.494l-46.148 26.644c.037-10.466-2.444-21.815-7.817-31.115-8.013-13.887-20.947-23.818-36.431-27.964-15.454-4.116-31.641-2.007-45.527 5.991-19.233 11.118-30.732 31.816-29.971 54.023l.103 3.164c0 .117 0 .22.015.337l1.465 44.306-36.987-23.047c-.015-.015-.044-.029-.059-.044l-2.695-1.685c-18.867-11.733-42.51-12.173-61.772-1.055-13.887 8.013-23.818 20.947-27.964 36.431s-2.021 31.655 5.991 45.542c5.475 9.465 13.182 16.824 22.044 21.909L7.505 214.489c-7.176 4.144-9.633 13.317-5.491 20.493l30.995 51.964c4.142 7.174 13.315 9.633 20.491 5.491l311.766-180.004c7.174-4.141 9.631-13.315 5.489-20.491zM99.422 161.995c-14.339 8.247-32.712 3.344-40.97-10.977-8.276-14.326-3.34-32.725 10.986-40.986 9.624-5.581 21.475-5.347 30.894.527l42.402 26.429zm143.894-93.214c-2.064 7.727-7.026 14.196-13.96 18.195l-43.325 25.014-1.69-50.948a30 30 0 0 1 15-27.012c6.914-4.028 15-5.068 22.764-3.003 7.734 2.08 14.209 7.046 18.208 13.989 4.014 6.945 5.083 16.016 3.003 23.765z" fill="#1eb9f0" opacity="1" data-original="#000000"></path></g></svg>