<svg width="16" height="16" viewBox="0 0 16 16" xmlns="http://www.w3.org/2000/svg"><title>Icon</title><g fill="#000" fill-rule="evenodd"><path d="M8 10.88a.96.96 0 1 0 0 1.92.96.96 0 0 0 0-1.92"/><path d="M8 1.28A6.727 6.727 0 0 0 1.28 8 6.727 6.727 0 0 0 8 14.72 6.727 6.727 0 0 0 14.72 8 6.727 6.727 0 0 0 8 1.28M8 16c-4.412 0-8-3.588-8-8s3.588-8 8-8 8 3.588 8 8-3.588 8-8 8"/><path d="M8 10.24a.64.64 0 0 1-.64-.64V7.68A.64.64 0 0 1 8 7.04a1.28 1.28 0 0 0 1.28-1.28A1.28 1.28 0 0 0 8 4.48a1.28 1.28 0 0 0-1.28 1.28.64.64 0 0 1-1.28 0A2.563 2.563 0 0 1 8 3.2a2.563 2.563 0 0 1 2.56 2.56c0 1.19-.817 2.195-1.92 2.48V9.6a.64.64 0 0 1-.64.64"/></g></svg>