<?xml version="1.0" encoding="utf-8"?>
<!-- Generator: Adobe Illustrator 25.0.0, SVG Export Plug-In . SVG Version: 6.00 Build 0)  -->
<svg version="1.1" id="Layer_1" xmlns="http://www.w3.org/2000/svg" xmlns:xlink="http://www.w3.org/1999/xlink" x="0px" y="0px"
	 viewBox="0 0 41 41" style="enable-background:new 0 0 41 41;" xml:space="preserve">
<style type="text/css">
	.st0{fill:#FFC7D4;}
	.st1{fill:#E6193C;}
</style>
<circle class="st0" cx="20.5" cy="20.5" r="20"/>
<path class="st1" d="M22,30.4c-1.4,0-2.8,0-4.1,0c0-0.1,0-0.2,0-0.3c0-3.1,0-6.2,0-9.3c0-0.2,0-0.3-0.3-0.3c-0.5,0-0.9,0-1.4,0
	c-0.1,0-0.2,0-0.3,0c0-1.2,0-2.3,0-3.5c0.6,0,1.3,0,2,0c0-0.1,0-0.2,0-0.3c0-0.8,0-1.5,0-2.3c0-1,0.4-1.9,1.1-2.7
	c0.6-0.6,1.4-1,2.3-1.1c1.3-0.1,2.5-0.1,3.8-0.1c0,1.2,0,2.3,0,3.4c-0.1,0-0.1,0-0.2,0c-0.6,0-1.2,0-1.9,0c-0.7,0-1,0.3-1,1
	c0,0.7,0,1.3,0,2c1,0,2.1,0,3.1,0c-0.1,1.2-0.2,2.3-0.4,3.5c-0.9,0-1.8,0-2.8,0C22,23.8,22,27.1,22,30.4z"/>
</svg>
