<?xml version="1.0" encoding="utf-8"?>
<!-- Generator: Adobe Illustrator 24.2.1, SVG Export Plug-In . SVG Version: 6.00 Build 0)  -->
<svg version="1.1" id="Layer_1" xmlns="http://www.w3.org/2000/svg" xmlns:xlink="http://www.w3.org/1999/xlink" x="0px" y="0px"
	 viewBox="0 0 41 41" style="enable-background:new 0 0 41 41;" xml:space="preserve">
<style type="text/css">
	.st0{fill:#F9D7DD;}
	.st1{fill:#FF5D7B;}
</style>
<circle class="st0" cx="20.5" cy="20.5" r="19.96"/>
<path class="st1" d="M21.97,30.44c-1.39,0-2.75,0-4.13,0c0-0.11,0-0.2,0-0.3c0-3.11,0-6.22,0.01-9.33c0-0.23-0.05-0.3-0.29-0.29
	c-0.47,0.02-0.94,0.01-1.41,0.01c-0.08,0-0.16,0-0.26,0c0-1.18,0-2.33,0-3.5c0.65,0,1.28,0,1.95,0c0-0.11,0-0.2,0-0.29
	c0-0.77-0.01-1.53,0.02-2.3c0.04-1.02,0.36-1.95,1.07-2.71c0.62-0.65,1.4-1.02,2.27-1.08c1.27-0.08,2.54-0.06,3.84-0.08
	c0,1.16,0,2.28,0,3.43c-0.07,0-0.15,0-0.23,0c-0.62,0-1.24,0-1.87,0c-0.66,0-0.97,0.32-0.98,0.98c0,0.67,0,1.33,0,2.03
	c1.05,0,2.08,0,3.15,0c-0.12,1.18-0.24,2.33-0.36,3.51c-0.93,0-1.84,0-2.78,0C21.97,23.83,21.97,27.12,21.97,30.44z"/>
</svg>
