<?xml version="1.0" encoding="utf-8"?>
<!-- Generator: Adobe Illustrator 25.0.0, SVG Export Plug-In . SVG Version: 6.00 Build 0)  -->
<svg version="1.1" id="Layer_1" xmlns="http://www.w3.org/2000/svg" xmlns:xlink="http://www.w3.org/1999/xlink" x="0px" y="0px"
	 viewBox="0 0 41 41" style="enable-background:new 0 0 41 41;" xml:space="preserve">
<style type="text/css">
	.st0{fill:#FFC7D4;}
	.st1{fill:#E6193C;}
</style>
<circle class="st0" cx="20.5" cy="20.5" r="20"/>
<path class="st1" d="M30.1,20.5c0,1.9,0,3.9,0,5.8c0,1.5-0.7,2.7-2.1,3.4c-0.5,0.3-1,0.4-1.6,0.4c-3.9,0-7.9,0-11.8,0
	c-2.1,0-3.7-1.6-3.7-3.7c0-3.9,0-7.8,0-11.7c0-2,1.6-3.7,3.6-3.7c1.9,0,3.8,0,5.6,0c2,0,4.1,0,6.1,0c1.8,0,3.2,1.2,3.6,2.6
	c0.1,0.4,0.2,0.8,0.2,1.3C30.1,16.7,30.1,18.6,30.1,20.5z M12.8,18.5c0,0.1,0,0.1,0,0.2c0,2.5,0,5,0,7.5c0,1.1,0.8,1.9,1.9,1.9
	c3.8,0,7.7,0,11.5,0c1.2,0,1.9-0.8,1.9-2c0-2.5,0-5,0-7.5c0-0.1,0-0.1,0-0.2c-1,0-1.9,0-2.8,0c0.8,2.6,0.2,4.7-2,6.3
	c-1.8,1.2-3.8,1.3-5.6,0.1c-2.4-1.5-3-3.7-2.2-6.4C14.7,18.5,13.8,18.5,12.8,18.5z M23.9,20.5c0-1.9-1.5-3.4-3.4-3.4
	c-1.9,0-3.4,1.5-3.4,3.4c0,1.8,1.5,3.4,3.4,3.4C22.4,23.9,23.9,22.4,23.9,20.5z M27.8,13.2c-1.1,0-2.1,0-3.2,0c0,1.1,0,2.1,0,3.2
	c1.1,0,2.1,0,3.2,0C27.8,15.3,27.8,14.2,27.8,13.2z"/>
</svg>
