<?xml version="1.0" encoding="utf-8"?>
<!-- Generator: Adobe Illustrator 24.2.1, SVG Export Plug-In . SVG Version: 6.00 Build 0)  -->
<svg version="1.1" id="Layer_1" xmlns="http://www.w3.org/2000/svg" xmlns:xlink="http://www.w3.org/1999/xlink" x="0px" y="0px"
	 viewBox="0 0 41 41" style="enable-background:new 0 0 41 41;" xml:space="preserve">
<style type="text/css">
	.st0{fill:#F9D7DD;}
	.st1{fill:#FF5D7B;}
</style>
<circle class="st0" cx="20.5" cy="20.5" r="19.96"/>
<path class="st1" d="M30.07,20.5c0,1.93,0.01,3.86,0,5.79c-0.01,1.55-0.72,2.69-2.1,3.41c-0.49,0.26-1.03,0.37-1.59,0.37
	c-3.93,0-7.85,0.01-11.78,0c-2.06-0.01-3.68-1.64-3.68-3.71c-0.01-3.9-0.01-7.81,0-11.71c0-2.04,1.58-3.67,3.62-3.7
	c1.88-0.03,3.76-0.01,5.64-0.01c2.02,0,4.05,0.02,6.07,0c1.82-0.02,3.2,1.16,3.62,2.57c0.12,0.4,0.18,0.84,0.19,1.26
	C30.08,16.67,30.07,18.59,30.07,20.5z M12.8,18.55c-0.01,0.07-0.01,0.14-0.01,0.2c0,2.52,0,5.03,0,7.55c0,1.14,0.79,1.92,1.93,1.92
	c3.85,0,7.69,0,11.54,0c1.16,0,1.94-0.79,1.94-1.95c0-2.49,0-4.99,0-7.48c0-0.08,0-0.15,0-0.23c-0.96,0-1.89,0-2.82,0
	c0.78,2.56,0.24,4.74-1.99,6.28c-1.79,1.24-3.77,1.29-5.61,0.12c-2.38-1.52-2.98-3.74-2.18-6.4C14.68,18.55,13.75,18.55,12.8,18.55z
	 M23.87,20.52c0-1.88-1.51-3.39-3.38-3.39c-1.86,0.01-3.36,1.51-3.36,3.38c0,1.84,1.51,3.35,3.36,3.35
	C22.35,23.87,23.87,22.36,23.87,20.52z M27.84,13.16c-1.08,0-2.15,0-3.22,0c0,1.09,0,2.15,0,3.21c1.08,0,2.15,0,3.22,0
	C27.84,15.29,27.84,14.22,27.84,13.16z"/>
</svg>
