<?xml version="1.0" encoding="utf-8"?>
<!-- Generator: Adobe Illustrator 24.2.1, SVG Export Plug-In . SVG Version: 6.00 Build 0)  -->
<svg version="1.1" id="Layer_1" xmlns="http://www.w3.org/2000/svg" xmlns:xlink="http://www.w3.org/1999/xlink" x="0px" y="0px"
	 viewBox="0 0 28 28" style="enable-background:new 0 0 28 28;" xml:space="preserve">
<style type="text/css">
	.st0{fill:#FFD203;stroke:#6A6A6A;stroke-width:0.25;stroke-miterlimit:10;}
</style>
<path class="st0" d="M22.48,26.76c-0.81-0.58-1.57-1.12-2.33-1.65c-1.96-1.4-3.92-2.79-5.88-4.19c-0.2-0.15-0.34-0.17-0.55-0.01
	c-2.62,1.88-5.25,3.75-7.88,5.62c-0.09,0.06-0.18,0.13-0.35,0.24c0.05-0.16,0.08-0.25,0.11-0.34c1.04-3.04,2.08-6.08,3.13-9.11
	c0.08-0.25,0.05-0.37-0.16-0.52c-2.68-1.86-5.34-3.72-8.01-5.59c-0.08-0.06-0.16-0.12-0.32-0.24c0.18,0,0.29,0,0.4,0
	c3.26,0,6.52,0,9.77,0.01c0.28,0,0.38-0.09,0.46-0.34c0.99-3.02,1.99-6.04,2.99-9.06C13.9,1.49,13.94,1.4,14,1.24
	c0.07,0.2,0.13,0.34,0.17,0.48c0.99,2.99,1.98,5.98,2.96,8.97c0.07,0.22,0.17,0.29,0.4,0.29c3.27-0.01,6.54-0.01,9.8-0.01
	c0.11,0,0.21,0,0.42,0c-0.24,0.17-0.4,0.29-0.57,0.41c-2.59,1.81-5.19,3.62-7.79,5.43c-0.21,0.14-0.24,0.26-0.16,0.49
	c1.06,3.04,2.1,6.09,3.15,9.14C22.42,26.52,22.44,26.61,22.48,26.76z"/>
</svg>
