<?xml version="1.0" encoding="utf-8"?>
<!-- Generator: Adobe Illustrator 25.0.0, SVG Export Plug-In . SVG Version: 6.00 Build 0)  -->
<svg version="1.1" id="Layer_1" xmlns="http://www.w3.org/2000/svg" xmlns:xlink="http://www.w3.org/1999/xlink" x="0px" y="0px"
	 viewBox="0 0 300 300" style="enable-background:new 0 0 300 300;" xml:space="preserve">
<style type="text/css">
	.st0{fill:#E6193C;}
	.st1{fill:#FFC7D4;}
</style>
<g>
	<rect x="71.6" y="48.2" class="st0" width="165.2" height="218.1"/>
	<path class="st1" d="M300,150.2c0.1,82.7-67.3,149.8-150.5,149.8C67.3,299.9,0.1,232.9,0,150.7C-0.1,67,66.9-0.1,150.5,0
		C233.1,0.1,299.9,67.2,300,150.2z M155.4,67.3c-0.1,1.1-0.3,1.9-0.3,2.8c0.1,33.3,0.3,66.7,0.1,100c0,6.5-0.9,13.3-2.9,19.4
		c-3.6,11.1-13.2,16.7-24.5,15.4c-11.2-1.3-20.4-9.9-22.1-20.6c-2.1-13.4,3.9-22.2,18.2-26.9c4.1-1.3,8.3-2.3,12.5-3.4
		c0-9.2,0-18.2,0-27.7c-3.5,0.4-6.8,0.6-10,1.1c-32.2,4.4-51.8,29.9-46.6,62c3.2,19.7,14.2,34.1,33.3,40.8
		c18.9,6.7,35.9,1.9,50.5-11.3c14.2-12.8,19.1-29.7,19.3-48.3c0.1-14.6,0-29.1,0-43.7c0-1.6,0-3.2,0-5.5c12.3,7,24.1,12.5,38,11
		c0-9,0-17.6,0-26.4c-24-2.1-35.4-16.5-38.5-38.9C173.2,67.3,164.4,67.3,155.4,67.3z"/>
</g>
</svg>
