<?xml version="1.0" encoding="utf-8"?>
<!-- Generator: Adobe Illustrator 24.2.1, SVG Export Plug-In . SVG Version: 6.00 Build 0)  -->
<svg version="1.1" id="Layer_1" xmlns="http://www.w3.org/2000/svg" xmlns:xlink="http://www.w3.org/1999/xlink" x="0px" y="0px"
	 viewBox="0 0 41 41" style="enable-background:new 0 0 41 41;" xml:space="preserve">
<style type="text/css">
	.st0{fill:#F9D7DD;}
	.st1{fill:#FF5D7B;}
</style>
<circle class="st0" cx="20.5" cy="20.5" r="19.96"/>
<path class="st1" d="M20.24,16.84c0-0.62-0.05-1.19,0.01-1.76c0.22-2.16,2.1-3.97,4.26-4.18c1.53-0.14,2.85,0.31,3.96,1.37
	c0.07,0.07,0.22,0.11,0.32,0.09c0.91-0.18,1.77-0.51,2.58-0.95c0.08-0.04,0.16-0.08,0.3-0.16c-0.39,1.14-1.07,1.98-2.01,2.63
	c0.9-0.08,1.75-0.33,2.64-0.7c-0.08,0.13-0.13,0.21-0.18,0.28c-0.55,0.77-1.2,1.45-1.96,2.02c-0.19,0.15-0.25,0.3-0.25,0.53
	c-0.09,5.31-2.27,9.49-6.82,12.3c-2.36,1.46-5,1.95-7.76,1.8c-2.33-0.12-4.49-0.81-6.47-2.03c-0.04-0.02-0.07-0.05-0.18-0.12
	c2.66,0.24,5-0.4,7.13-2c-2.21-0.21-3.7-1.3-4.52-3.38c0.72,0.09,1.39,0.11,2.11-0.09c-2.39-0.74-3.66-2.32-3.83-4.81
	c0.38,0.14,0.72,0.29,1.07,0.39c0.34,0.1,0.7,0.14,1.07,0.18c-1.24-0.96-1.97-2.19-2.06-3.75c-0.06-1.02,0.22-2.11,0.66-2.7
	C12.93,14.87,16.25,16.57,20.24,16.84z"/>
</svg>
