<?xml version="1.0" encoding="utf-8"?>
<!-- Generator: Adobe Illustrator 25.0.0, SVG Export Plug-In . SVG Version: 6.00 Build 0)  -->
<svg version="1.1" id="Layer_1" xmlns="http://www.w3.org/2000/svg" xmlns:xlink="http://www.w3.org/1999/xlink" x="0px" y="0px"
	 viewBox="0 0 41 41" style="enable-background:new 0 0 41 41;" xml:space="preserve">
<style type="text/css">
	.st0{fill:#FFC7D4;}
	.st1{fill:#E6193C;}
</style>
<circle class="st0" cx="20.5" cy="20.5" r="20"/>
<path class="st1" d="M20.2,16.8c0-0.6,0-1.2,0-1.8c0.2-2.2,2.1-4,4.3-4.2c1.5-0.1,2.9,0.3,4,1.4c0.1,0.1,0.2,0.1,0.3,0.1
	c0.9-0.2,1.8-0.5,2.6-0.9c0.1,0,0.2-0.1,0.3-0.2c-0.4,1.1-1.1,2-2,2.6c0.9-0.1,1.8-0.3,2.6-0.7c-0.1,0.1-0.1,0.2-0.2,0.3
	c-0.5,0.8-1.2,1.4-2,2c-0.2,0.1-0.2,0.3-0.2,0.5c-0.1,5.3-2.3,9.5-6.8,12.3c-2.4,1.5-5,2-7.8,1.8c-2.3-0.1-4.5-0.8-6.5-2
	c0,0-0.1,0-0.2-0.1c2.7,0.2,5-0.4,7.1-2c-2.2-0.2-3.7-1.3-4.5-3.4c0.7,0.1,1.4,0.1,2.1-0.1c-2.4-0.7-3.7-2.3-3.8-4.8
	c0.4,0.1,0.7,0.3,1.1,0.4c0.3,0.1,0.7,0.1,1.1,0.2c-1.2-1-2-2.2-2.1-3.8c-0.1-1,0.2-2.1,0.7-2.7C12.9,14.9,16.2,16.6,20.2,16.8z"/>
</svg>
