<?xml version="1.0" encoding="utf-8"?>
<!-- Generator: Adobe Illustrator 25.0.0, SVG Export Plug-In . SVG Version: 6.00 Build 0)  -->
<svg version="1.1" id="Layer_1" xmlns="http://www.w3.org/2000/svg" xmlns:xlink="http://www.w3.org/1999/xlink" x="0px" y="0px"
	 viewBox="0 0 41 41" style="enable-background:new 0 0 41 41;" xml:space="preserve">
<style type="text/css">
	.st0{fill:#FFC7D4;}
	.st1{fill:#E6193C;}
</style>
<circle class="st0" cx="20.5" cy="20.5" r="20"/>
<path class="st1" d="M20.5,29.2c-2.7,0-5.5,0-8.2,0c-2.3,0-4.2-1.5-4.7-3.6c-0.1-0.4-0.1-0.8-0.1-1.2c0-2.6,0-5.3,0-7.9
	c0-2.7,2.1-4.8,4.8-4.8c5.5,0,11,0,16.6,0c2.7,0,4.8,2.1,4.8,4.8c0,2.6,0,5.2,0,7.9c0,2.5-1.7,4.5-4.2,4.8c-0.3,0-0.5,0-0.8,0
	C25.9,29.2,23.2,29.2,20.5,29.2z M17.6,20.5c0,1.1,0,2.2,0,3.3c0,0.3,0.1,0.6,0.4,0.8c0.3,0.2,0.6,0.1,0.9-0.1
	c1.7-1.1,3.5-2.2,5.2-3.3c0.6-0.4,0.6-1,0-1.4c-1.7-1.1-3.5-2.2-5.2-3.3c-0.3-0.2-0.5-0.2-0.8-0.1c-0.3,0.2-0.4,0.4-0.4,0.8
	C17.6,18.3,17.6,19.4,17.6,20.5z"/>
</svg>
