<?xml version="1.0" encoding="utf-8"?>
<!-- Generator: Adobe Illustrator 24.2.1, SVG Export Plug-In . SVG Version: 6.00 Build 0)  -->
<svg version="1.1" id="Layer_1" xmlns="http://www.w3.org/2000/svg" xmlns:xlink="http://www.w3.org/1999/xlink" x="0px" y="0px"
	 viewBox="0 0 41 41" style="enable-background:new 0 0 41 41;" xml:space="preserve">
<style type="text/css">
	.st0{fill:#F9D7DD;}
	.st1{fill:#FF5D7B;}
</style>
<circle class="st0" cx="20.5" cy="20.5" r="19.96"/>
<path class="st1" d="M20.49,29.24c-2.73,0-5.47-0.02-8.2,0.01c-2.35,0.03-4.23-1.55-4.72-3.57c-0.1-0.4-0.14-0.81-0.14-1.22
	c-0.01-2.64-0.01-5.29,0-7.93c0.01-2.69,2.1-4.76,4.79-4.76c5.52,0,11.04,0,16.56,0c2.72,0,4.8,2.08,4.8,4.81c0,2.62,0,5.23,0,7.85
	c0,2.5-1.69,4.45-4.16,4.79c-0.26,0.04-0.54,0.03-0.81,0.03C25.91,29.24,23.2,29.24,20.49,29.24z M17.59,20.52c0,1.09,0,2.18,0,3.28
	c0,0.32,0.09,0.58,0.37,0.75c0.3,0.17,0.58,0.11,0.86-0.07c1.74-1.09,3.48-2.17,5.21-3.26c0.6-0.37,0.59-1.03,0-1.4
	c-1.74-1.09-3.48-2.17-5.21-3.26c-0.27-0.17-0.54-0.24-0.83-0.08c-0.3,0.17-0.4,0.43-0.39,0.76C17.59,18.33,17.59,19.42,17.59,20.52
	z"/>
</svg>
